<svg xmlns="http://www.w3.org/2000/svg" viewBox="0 0 1200 630" width="1200" height="630" font-family="Montserrat, Arial, sans-serif">
<rect width="1200" height="630" fill="#F6EFE6"/>
<text x="60" y="56" fill="#3F455D" font-size="14" font-weight="600" letter-spacing="2" opacity="0.6">CUSTOMER LIFETIME VALUE</text>
<text x="60" y="102" fill="#3F455D" font-size="34" font-weight="600">Sort the list by what customers actually spent</text>
<text x="60" y="136" fill="#333333" font-size="19" opacity="0.85">A round number guesses where your best customers are. A percentile reads your real list.</text>

<rect x="60" y="176" width="520" height="322" rx="10" fill="#FFFFFF" stroke="#3F455D" stroke-opacity="0.35" stroke-width="1.5"/>
<text x="88" y="212" fill="#3F455D" font-size="13" font-weight="700" letter-spacing="1.4">ONE ROUND NUMBER</text>
<rect x="82.0" y="460.0" width="17.1" height="10.0" rx="2" fill="#B9BDC9"/>
<rect x="109.5" y="460.0" width="17.1" height="10.0" rx="2" fill="#B9BDC9"/>
<rect x="137.0" y="460.0" width="17.1" height="10.0" rx="2" fill="#B9BDC9"/>
<rect x="164.5" y="460.0" width="17.1" height="10.0" rx="2" fill="#B9BDC9"/>
<rect x="192.0" y="460.0" width="17.1" height="10.0" rx="2" fill="#B9BDC9"/>
<rect x="219.5" y="459.1" width="17.1" height="10.9" rx="2" fill="#B9BDC9"/>
<rect x="247.0" y="455.9" width="17.1" height="14.1" rx="2" fill="#B9BDC9"/>
<rect x="274.5" y="451.6" width="17.1" height="18.4" rx="2" fill="#B9BDC9"/>
<rect x="302.0" y="446.1" width="17.1" height="23.9" rx="2" fill="#B9BDC9"/>
<rect x="329.5" y="438.9" width="17.1" height="31.1" rx="2" fill="#B9BDC9"/>
<rect x="357.0" y="429.6" width="17.1" height="40.4" rx="2" fill="#B9BDC9"/>
<rect x="384.5" y="417.5" width="17.1" height="52.5" rx="2" fill="#B9BDC9"/>
<rect x="412.0" y="401.7" width="17.1" height="68.3" rx="2" fill="#B9BDC9"/>
<rect x="439.5" y="381.2" width="17.1" height="88.8" rx="2" fill="#B9BDC9"/>
<rect x="467.0" y="354.6" width="17.1" height="115.4" rx="2" fill="#B9BDC9"/>
<rect x="494.5" y="320.0" width="17.1" height="150.0" rx="2" fill="#B9BDC9"/>
<line x1="78" y1="380.0" x2="562" y2="380.0" stroke="#BA9200" stroke-width="2.5" stroke-dasharray="7 5"/>
<text x="500" y="372.0" fill="#BA9200" font-size="15" font-weight="700">$500</text>
<text x="88" y="486" fill="#333333" font-size="14.5" opacity="0.75">The same line for every brand.</text>

<rect x="620" y="176" width="520" height="322" rx="10" fill="#FFFFFF" stroke="#3F455D" stroke-opacity="0.35" stroke-width="1.5"/>
<text x="648" y="212" fill="#3F455D" font-size="13" font-weight="700" letter-spacing="1.4">BY PERCENTILE</text>
<rect x="642.0" y="460.0" width="17.1" height="10.0" rx="2" fill="#9DA3B3"/>
<rect x="669.5" y="460.0" width="17.1" height="10.0" rx="2" fill="#9DA3B3"/>
<rect x="697.0" y="460.0" width="17.1" height="10.0" rx="2" fill="#9DA3B3"/>
<rect x="724.5" y="460.0" width="17.1" height="10.0" rx="2" fill="#9DA3B3"/>
<rect x="752.0" y="460.0" width="17.1" height="10.0" rx="2" fill="#9DA3B3"/>
<rect x="779.5" y="459.1" width="17.1" height="10.9" rx="2" fill="#9DA3B3"/>
<rect x="807.0" y="455.9" width="17.1" height="14.1" rx="2" fill="#9DA3B3"/>
<rect x="834.5" y="451.6" width="17.1" height="18.4" rx="2" fill="#9DA3B3"/>
<rect x="862.0" y="446.1" width="17.1" height="23.9" rx="2" fill="#59A56D"/>
<rect x="889.5" y="438.9" width="17.1" height="31.1" rx="2" fill="#59A56D"/>
<rect x="917.0" y="429.6" width="17.1" height="40.4" rx="2" fill="#59A56D"/>
<rect x="944.5" y="417.5" width="17.1" height="52.5" rx="2" fill="#59A56D"/>
<rect x="972.0" y="401.7" width="17.1" height="68.3" rx="2" fill="#59A56D"/>
<rect x="999.5" y="381.2" width="17.1" height="88.8" rx="2" fill="#BA9200"/>
<rect x="1027.0" y="354.6" width="17.1" height="115.4" rx="2" fill="#BA9200"/>
<rect x="1054.5" y="320.0" width="17.1" height="150.0" rx="2" fill="#BA9200"/>
<text x="648" y="486" fill="#333333" font-size="14.5" opacity="0.75">Cut from your actual list.</text>
<circle cx="1052" cy="207" r="5" fill="#BA9200"/><text x="1064" y="212" fill="#3F455D" font-size="13">High 20%</text>
<circle cx="962" cy="207" r="5" fill="#59A56D"/><text x="974" y="212" fill="#3F455D" font-size="13">Mid 30%</text>

<line x1="60" y1="536" x2="1140" y2="536" stroke="#BA9200" stroke-opacity="0.35"/>
<text x="60" y="574" fill="#3F455D" font-size="18" opacity="0.85">High value means the same thing whatever your average order happens to be.</text>
</svg>